<svg width="483" height="511" viewBox="0 0 483 511" fill="none" xmlns="http://www.w3.org/2000/svg">
<path fill-rule="evenodd" clip-rule="evenodd" d="M449.851 323.011C471.909 316.366 490.794 340.714 478.786 360.429C408.318 476.133 313.685 517.112 226.908 509.72C141.796 502.471 66.72 448.658 34.8209 380.133C7.31907 321.055 -12.6502 242.102 9.93726 168.899C33.1185 93.7721 99.1286 30.6321 230.734 0.744828C252.271 -4.14606 270.191 19.8682 257.604 39.2081C247.196 55.1992 228.06 88.3792 218.12 128.692C208.221 168.838 207.755 214.553 232.34 257.81C261.462 309.049 304.692 328.153 346.535 333.296C389.206 338.54 429.835 329.041 449.851 323.011ZM424.058 370.142C400.921 374.206 371.975 376.723 341.655 372.997C290.208 366.674 234.275 342.167 197.565 277.575C166.365 222.679 167.809 165.651 179.283 119.116C186.025 91.773 196.337 67.5345 206.056 48.5729C107.903 78.2496 64.2318 128.603 48.1591 180.693C29.7668 240.3 45.4909 308.274 71.0842 363.252C96.7184 418.318 158.954 463.787 230.302 469.865C292.678 475.178 364.103 450.375 424.058 370.142Z" fill="black"/>
</svg>
